<svg xmlns="http://www.w3.org/2000/svg" xmlns:xlink="http://www.w3.org/1999/xlink" viewBox="0 0 62 32" version="1.1" style="box-shadow: none; border-radius: 0px; opacity: 1;" preserveAspectRatio="xMidYMid meet" fill="#ffffff" fill-opacity="1">
    <g id="9a78544f-a109-44b4-a4b8-2896bd9462f9" stroke="none" stroke-width="1" fill="" fill-rule="evenodd" style="undefined" fill-opacity="">
        <g id="b1f4324c-aafa-4d14-8a1f-e81e4db30d74" transform="translate(-208.000000, -40.000000)" fill="" style="undefined" fill-opacity="">
            <path d="M265.902781,72 C264.312071,72 263,71.0173008 263,69.2475563 C263,67.1243908 264.670307,65 267.136494,65 C269.085726,65 270,66.2188787 270,67.8318927 C270,69.9950184 268.289751,72 265.902781,72 Z M233.492592,53.5011341 L233.317697,53.238694 C234.847843,51.0085828 236.727883,50.089938 238.696051,50.089938 C241.232183,50.089938 241.494577,52.1016287 241.494577,52.8896824 C241.494577,53.7191353 241.232183,54.5942847 240.925881,55.9497706 L238.521576,66.2716075 C238.258867,67.3211579 238.608237,67.6266741 239.176095,67.6266741 C240.532604,67.6266741 242.062854,66.0966824 242.062854,66.0966824 L243.06863,67.0584034 C241.188695,69.7703185 238.521576,71.9568295 235.460446,71.9568295 C233.579673,71.9568295 232.617594,70.6017628 232.617594,69.1576091 C232.617594,68.5891288 232.661187,67.9330288 232.83692,67.146128 L235.285551,55.7317693 C235.590596,54.3757594 235.590596,53.6324589 235.110237,53.3705429 C234.629041,53.1077885 234.104357,53.2822943 233.492592,53.5011341 Z M236.727883,43.3236811 C236.903197,41.4425816 238.47725,40 240.357185,40 C242.194156,40 243.593733,41.7050216 243.417581,43.5860163 C243.243944,45.4237253 241.756972,46.8663068 239.789013,46.8663068 C237.952565,46.8663068 236.553303,45.2914572 236.727883,43.3236811 Z M260.384719,66.9277599 C259.771697,68.1084255 256.798381,71.9567771 251.682317,71.9567771 C246.785159,71.9567771 244.336842,68.4578564 244.336842,63.9090709 C244.336842,60.0179576 246.216882,55.7317169 249.146291,53.1956702 C251.944292,50.7449375 254.481576,50.0899904 257.060357,50.0899904 C260.952158,50.0899904 262.527049,52.2326915 262.527049,54.3758118 C262.527049,56.0811478 261.345435,58.1803535 258.984304,58.1803535 C257.673798,58.1803535 256.623172,57.4806532 256.142814,56.0811478 C256.754893,55.5567919 256.973695,54.725662 256.973695,53.9816278 C256.973695,53.3266806 256.448592,52.4947123 255.400062,52.4947123 C252.64429,52.4947123 249.84587,55.906642 249.84587,61.679903 C249.84587,64.7843251 251.463934,67.4521159 254.612145,67.4521159 C256.22979,67.4521159 257.934411,67.1461804 259.553314,65.8776854 L260.384719,66.9277599 Z M230.256065,66.0966614 L231.262364,67.0583825 C229.382429,69.7702975 226.146719,71.9568085 223.260903,71.9568085 C221.117316,71.9568085 220.76826,70.5578272 220.76826,69.244579 C220.76826,67.0153063 222.692207,62.4665208 222.692207,62.4665208 L222.560381,62.4230253 C219.937693,69.0260537 216.045892,71.9568085 212.722368,71.9568085 C209.399263,71.9568085 208,69.0260537 208,65.7894683 C208,63.2098213 209.049892,58.8369042 212.460497,54.9441139 C215.740114,51.2265631 219.456078,50.089917 223.303972,50.089917 C226.714472,50.089917 229.513417,50.9646472 229.906275,51.2705826 L226.671403,66.2272526 C226.452182,67.1893929 226.758798,67.715321 227.370982,67.715321 C228.857221,67.715321 230.256065,66.0966614 230.256065,66.0966614 Z M222.99767,56.7373841 L223.829075,52.9754994 C223.435693,52.4946389 222.780126,52.2762184 221.730234,52.2762184 C217.664376,52.2762184 213.597366,59.0554295 213.597366,63.603691 C213.597366,65.6162201 214.165119,67.0583825 216.17688,67.0583825 C218.319629,67.0583825 220.024355,64.6536606 221.030235,62.6849413 C222.035697,60.6729362 222.385591,59.5361852 222.99767,56.7373841 Z" id="7a8c0276-9172-44fa-bd80-6b3c0f2010fd"></path>
        </g>
    </g>
</svg>